# xmcd
#
# Track frame offsets:
#	150
#	34425
#	54150
#	79420
#	105040
#	129050
#
# Disc length: 2052 seconds
#
# Revision: 2
# Processed by: cddbd v1.5.1PL0 Copyright (c) Steve Scherf et al.
# Submitted via: EasyCDDAExtractor 8.0.2.1
#
DISCID=3c080206
DTITLE=Ozzy Osbourne - CNE Grandstand Toronto 26-09-86 Disc 1
DYEAR=1986
DGENRE=Hard Rock
TTITLE0=Intro - Bark At The Moon
TTITLE1=Suicide Solution
TTITLE2=Never Know Why
TTITLE3=Mr Crowley
TTITLE4=Shot In The Dark
TTITLE5=I Don't Know
EXTD=
EXTT0=
EXTT1=
EXTT2=
EXTT3=
EXTT4=
EXTT5=
PLAYORDER=
